<svg width="40" height="40" viewBox="0 0 40 40" fill="none" xmlns="http://www.w3.org/2000/svg">
<g id="Telegram App">
<path id="Vector" d="M33.5391 5.31209C33.1057 5.33121 32.7018 5.45746 32.3464 5.60116C32.0133 5.73511 30.741 6.28081 28.737 7.14022C26.7312 8.00038 24.0753 9.14063 21.2422 10.359C15.576 12.7956 9.20561 15.5385 5.94271 16.9423C5.82001 16.9951 5.39189 17.1318 4.9375 17.4866C4.48311 17.8413 4 18.5764 4 19.3954C4 20.0559 4.31476 20.712 4.71094 21.1038C5.10712 21.4955 5.52633 21.689 5.88542 21.8355C7.1883 22.3671 11.2291 24.0207 11.9922 24.3329C12.2607 25.1556 13.7233 29.6296 14.0625 30.7262C14.2861 31.4498 14.4989 31.903 14.776 32.2626C14.9146 32.4424 15.0757 32.6 15.2708 32.7236C15.3488 32.7729 15.4344 32.8109 15.5208 32.8459L15.526 32.8486C15.546 32.8566 15.5631 32.8701 15.5833 32.8772C15.6214 32.8905 15.6469 32.8921 15.6979 32.9032C15.901 32.9688 16.1061 33.01 16.2891 33.01C17.0693 33.01 17.5469 32.5803 17.5469 32.5803L17.5755 32.5595L21.5885 29.0881L26.4557 33.6923C26.5243 33.7892 27.1634 34.6663 28.5729 34.6663C29.4098 34.6663 30.0738 34.2463 30.5 33.7991C30.9262 33.3519 31.1918 32.882 31.3047 32.2913V32.2887C31.4103 31.7304 35.8958 8.70272 35.8958 8.70272L35.888 8.73397C36.0193 8.13462 36.0537 7.57645 35.9089 7.02563C35.764 6.47482 35.3822 5.94745 34.9089 5.66366C34.4356 5.37993 33.9725 5.29297 33.5391 5.31209ZM33.2891 8.09855C33.2827 8.13746 33.2939 8.1179 33.2839 8.16366L33.2812 8.17928L33.2786 8.19491C33.2786 8.19491 28.8486 30.9281 28.6849 31.7939C28.6969 31.7285 28.6421 31.8585 28.5859 31.9371C28.5065 31.8824 28.3437 31.8121 28.3437 31.8121L28.3177 31.7834L21.6693 25.4944L16.9687 29.5569L18.3672 23.9579C18.3672 23.9579 27.1087 14.9091 27.6354 14.3824C28.0594 13.9611 28.1484 13.8142 28.1484 13.6689C28.1484 13.4742 28.047 13.3329 27.8203 13.3329C27.6163 13.3329 27.342 13.5313 27.1953 13.6246C25.2845 14.8427 16.8958 19.7318 13.1354 21.9189C12.5378 21.6743 8.38622 19.9749 6.97917 19.4006C6.98982 19.396 6.98631 19.3976 6.9974 19.3928C10.2612 17.9886 16.6288 15.2458 22.2943 12.8095C25.127 11.5913 27.7849 10.4502 29.7891 9.59074C31.7624 8.74451 33.1335 8.16211 33.2891 8.09855Z" fill="white"/>
</g>
</svg>
