<svg width="40" height="40" viewBox="0 0 40 40" fill="none" xmlns="http://www.w3.org/2000/svg">
<g id="WhatsApp">
<path id="Vector" d="M20 4C11.164 4 4 11.164 4 20C4 23.0016 4.84312 25.8001 6.28125 28.2005L4.14323 36L12.1094 33.9089C14.4391 35.2334 17.1287 36 20 36C28.836 36 36 28.836 36 20C36 11.164 28.836 4 20 4ZM14.5234 12.5365C14.7834 12.5365 15.0506 12.5349 15.2813 12.5469C15.5666 12.5535 15.8771 12.5744 16.1745 13.2318C16.5278 14.0131 17.2972 15.9732 17.3958 16.1719C17.4945 16.3705 17.5644 16.6046 17.4271 16.8646C17.2964 17.1313 17.2285 17.2926 17.0365 17.5286C16.8378 17.758 16.6201 18.0428 16.4401 18.2161C16.2414 18.4148 16.0363 18.6326 16.2656 19.0286C16.495 19.4246 17.2914 20.7228 18.4687 21.7708C19.9821 23.1228 21.2589 23.5383 21.6562 23.737C22.0536 23.9356 22.2837 23.9047 22.513 23.638C22.749 23.378 23.5042 22.4859 23.7708 22.0885C24.0308 21.6912 24.2963 21.76 24.6562 21.8906C25.0216 22.0213 26.9699 22.981 27.3672 23.1797C27.7645 23.3784 28.025 23.4767 28.125 23.638C28.2277 23.8047 28.2278 24.5981 27.8984 25.5234C27.5691 26.4474 25.9519 27.341 25.2266 27.4036C24.4946 27.4716 23.8114 27.7327 20.4688 26.4167C16.4368 24.8287 13.894 20.699 13.6953 20.4323C13.4966 20.1723 12.0807 18.2852 12.0807 16.3385C12.0807 14.3852 13.1049 13.4286 13.4635 13.0312C13.8289 12.6339 14.2568 12.5365 14.5234 12.5365Z" fill="white"/>
</g>
</svg>
