<svg width="50" height="50" viewBox="0 0 50 50" fill="none" xmlns="http://www.w3.org/2000/svg">
<g id="ei:arrow-up">
<path id="Vector" d="M42 25C42 34.4 34.4 42 25 42C15.6 42 8 34.4 8 25C8 15.6 15.6 8 25 8C34.4 8 42 15.6 42 25ZM10 25C10 33.3 16.7 40 25 40C33.3 40 40 33.3 40 25C40 16.7 33.3 10 25 10C16.7 10 10 16.7 10 25Z" fill="white"/>
<path id="Vector_2" d="M26.7001 16.7L18.4001 25L26.7001 33.3L25.3001 34.7L15.6001 25L25.3001 15.3L26.7001 16.7Z" fill="white"/>
<path id="Vector_3" d="M17 26V24L34 24V26L17 26Z" fill="white"/>
</g>
</svg>
