<svg width="100" height="100" viewBox="0 0 100 100" fill="none" xmlns="http://www.w3.org/2000/svg">
<g id="logo 100-100 white 1">
<path id="Vector" fill-rule="evenodd" clip-rule="evenodd" d="M38.33 75.2601V78.9701H34.62V75.2601H38.33ZM34.62 70.1801H38.33V73.8901H34.62V70.1801ZM33.25 75.2601V78.9701H29.54V75.2601H33.25ZM29.54 70.1801H33.25V73.8901H29.54V70.1801ZM71.23 75.2601V78.9701H67.52V75.2601H71.23ZM67.52 70.1801H71.23V73.8901H67.52V70.1801ZM66.15 75.2601V78.9701H62.44V75.2601H66.15ZM62.44 70.1801H66.15V73.8901H62.44V70.1801ZM54.78 53.4901V57.2001H51.07V53.4901H54.78ZM51.07 48.4101H54.78V52.1201H51.07V48.4101ZM49.7 53.4901V57.2001H45.99V53.4901H49.7ZM45.99 48.4101H49.7V52.1201H45.99V48.4101ZM83.44 87.4701H87.81H92.77L83.44 85.2701V72.1201H85.68L66.83 53.2801L50.38 69.7201L33.94 53.2801L15.1 72.1201H17.34V85.2801L8 87.4701H12.96H17.33H17.92H19.88V72.1201L33.93 58.0701L47.98 72.1201L50.37 74.5201L52.76 72.1201L66.81 58.0701L80.86 72.1201V87.4801H82.82H83.44V87.4701ZM50.39 29.5701L69.23 48.4101H66.99V51.1701L64.44 53.4101V48.4201L50.39 34.3601L36.33 48.4101V53.4101L33.78 51.1701V48.4101H31.54L50.39 29.5701Z" fill="white"/>
<path id="Vector_2" fill-rule="evenodd" clip-rule="evenodd" d="M49.23 14.7H51.58V20.55H56.81V22.9H51.58V33.77H49.23V22.9H44V20.55H49.23V14.7Z" fill="white"/>
</g>
</svg>
